<svg width="60" height="59" viewBox="0 0 60 59" fill="none" xmlns="http://www.w3.org/2000/svg">
<g id="Group 21">
<rect id="Rectangle" x="22.1815" y="0.543182" width="43.6739" height="41" rx="12" transform="rotate(32 22.1815 0.543182)" fill="#486E1A"/>
<g id="schedule_white_24dp">
<path id="Shape" fill-rule="evenodd" clip-rule="evenodd" d="M20 30C20 24.48 24.47 20 29.99 20C35.52 20 40 24.48 40 30C40 35.52 35.52 40 29.99 40C24.47 40 20 35.52 20 30ZM22 30C22 34.42 25.58 38 30 38C34.42 38 38 34.42 38 30C38 25.58 34.42 22 30 22C25.58 22 22 25.58 22 30Z" fill="white"/>
<path id="Path" d="M30.5 25H29V31L34.25 34.15L35 32.92L30.5 30.25V25Z" fill="white"/>
</g>
</g>
</svg>
