<svg width="40" height="39" viewBox="0 0 40 39" fill="none" xmlns="http://www.w3.org/2000/svg">
<path fill-rule="evenodd" clip-rule="evenodd" d="M11.1689 7.17403C13.5102 3.42712 18.4457 2.28767 22.1926 4.629L33.1951 11.5041C36.942 13.8455 38.0815 18.781 35.7401 22.5279L29.805 32.026C27.4637 35.7729 22.5282 36.9124 18.7813 34.571L7.77878 27.6959C4.03187 25.3546 2.89242 20.4191 5.23375 16.6722L11.1689 7.17403Z" fill="#486E1A"/>
<path fill-rule="evenodd" clip-rule="evenodd" d="M14 19.5C14 15.912 16.9055 13 20.4935 13C24.088 13 27 15.912 27 19.5C27 23.088 24.088 26 20.4935 26C16.9055 26 14 23.088 14 19.5ZM15.3 19.5C15.3 22.373 17.627 24.7 20.5 24.7C23.373 24.7 25.7 22.373 25.7 19.5C25.7 16.627 23.373 14.3 20.5 14.3C17.627 14.3 15.3 16.627 15.3 19.5Z" fill="white"/>
<path d="M20 16H19V19.9344L22.5 22L23 21.1934L20 19.4426V16Z" fill="white"/>
</svg>
